<?xml version="1.0" encoding="utf-8"?>
<!-- Generator: Adobe Illustrator 27.5.0, SVG Export Plug-In . SVG Version: 6.00 Build 0)  -->
<svg version="1.1" xmlns="http://www.w3.org/2000/svg" xmlns:xlink="http://www.w3.org/1999/xlink" x="0px" y="0px"
	 viewBox="0 0 3710 3710" style="enable-background:new 0 0 3710 3710;" xml:space="preserve">
<g id="Background">
	<g>
		<g>
			<rect style="fill:#FFFFFF;" width="3710" height="3710"/>
		</g>
	</g>
</g>
<g id="Illustration">
	<g>
		<linearGradient id="SVGID_1_" gradientUnits="userSpaceOnUse" x1="3589.498" y1="4059.2627" x2="1117.6093" y2="989.3319">
			<stop  offset="0" style="stop-color:#DAE3FE"/>
			<stop  offset="1" style="stop-color:#E9EFFD"/>
		</linearGradient>
		<path style="fill:url(#SVGID_1_);" d="M2914.015,2845.44c-57.028,59.602-110.987,98.039-153.619,128.406
			c-501.131,356.965-1094.102,252.912-1220.125,227.5c-186.097-37.524-545.817-110.056-805.888-413.682
			c-393.466-459.36-332.198-1183.069-26.999-1660.8c55.826-87.385,350.713-572.392,950.071-650.172
			c362.725-47.072,785.545,47.866,1091.74,302.54C3391.927,1313.818,3346.171,2393.773,2914.015,2845.44z"/>
		<g>
			<g>
				<g>
					
						<linearGradient id="SVGID_00000039827345067175354350000010884957913896049317_" gradientUnits="userSpaceOnUse" x1="2340.2893" y1="3262.1221" x2="967.3392" y2="485.9373">
						<stop  offset="0" style="stop-color:#09005D"/>
						<stop  offset="1" style="stop-color:#1A0F91"/>
					</linearGradient>
					<path style="fill:url(#SVGID_00000039827345067175354350000010884957913896049317_);" d="M782.547,594.62
						c-10.82,436.438-45.909,1941.88-29.159,2475.363c1.774,56.518,47.081,101.88,103.597,103.73
						c279.527,9.147,1083.645,32.332,1540.855,13.15c95.23-3.995,170.959-81.132,172.935-176.425
						c9.501-458.098,30.463-1746.555-19.361-2336.798c-5.969-70.72-61.477-127.037-132.095-134.102
						c-304.417-30.453-1112.942-104.893-1507.943-79.26C840.137,464.902,784.315,523.253,782.547,594.62z"/>
					<path style="fill:#BDD0FB;" d="M896.126,730.231c-15.268,357.44-63.422,1546.56-48.138,1986.271
						c2.234,64.27,52.889,116.237,117.088,119.994c264.326,15.468,942.299,49.576,1330.001,18.529
						c69.812-5.59,124.594-62.049,128.362-131.983c19.647-364.664,76.06-1471.901,61.408-1906.685
						c-2.338-69.359-56.066-126.005-125.187-132.211c-285.959-25.674-1020.398-86.764-1349.856-68.789
						C947.959,618.731,898.769,668.349,896.126,730.231z"/>
					
						<linearGradient id="SVGID_00000036233445380605994310000015423888339555870630_" gradientUnits="userSpaceOnUse" x1="1473.3656" y1="545.2292" x2="1858.9121" y2="545.2292">
						<stop  offset="0" style="stop-color:#4F52FF"/>
						<stop  offset="1" style="stop-color:#4042E2"/>
					</linearGradient>
					<path style="opacity:0.51;fill:url(#SVGID_00000036233445380605994310000015423888339555870630_);" d="M1473.366,536.539
						L1473.366,536.539c0,13.392,10.436,24.437,23.809,25.137c66.022,3.457,252.009,13.241,335.128,18.064
						c16.389,0.951,29.251-13.781,26.143-29.9l-0.531-2.751c-2.121-10.999-11.243-19.278-22.398-20.3
						c-56.184-5.148-225.719-19.423-338.046-15.414C1483.978,511.858,1473.366,523.038,1473.366,536.539z"/>
				</g>
			</g>
			<g>
				<path style="opacity:0.6;fill:#FFFFFF;" d="M2344.956,1003.329L964.783,933.436c-17.106-0.867-33.578,10.798-45.681,32.25
					c-12.103,21.452-18.647,50.793-18.162,81.124l17.492,1094.128c0.953,59.677,28.534,106.8,62.207,106.8H2343.5
					c34.359,0,61.571-48.626,61.571-109.542V1113.581C2405.071,1053.893,2378.609,1005.033,2344.956,1003.329z"/>
				<g>
					<defs>
						<path id="SVGID_00000090292064026468832380000013661925535894985873_" d="M2287.736,785.002l-1267.505-81.993
							c-15.71-1.016-30.837,12.667-41.952,37.833c-11.115,25.165-17.124,59.587-16.68,95.168l16.064,1283.679
							c0.875,70.009,26.205,125.419,57.129,125.419h1251.606c31.554,0,56.545-57.302,56.545-128.765v-1202
							C2342.944,844.32,2318.642,787.001,2287.736,785.002z"/>
					</defs>
					<clipPath id="SVGID_00000004521048134592175090000009038843666416021410_">
						<use xlink:href="#SVGID_00000090292064026468832380000013661925535894985873_"  style="overflow:visible;"/>
					</clipPath>
					<g style="clip-path:url(#SVGID_00000004521048134592175090000009038843666416021410_);">
						
							<linearGradient id="SVGID_00000044154635166418323660000009657917239959382441_" gradientUnits="userSpaceOnUse" x1="1643.1509" y1="1990.1614" x2="1718.6996" y2="1990.1614">
							<stop  offset="0" style="stop-color:#FEBBBA"/>
							<stop  offset="1" style="stop-color:#FF928E"/>
						</linearGradient>
						<path style="fill:url(#SVGID_00000044154635166418323660000009657917239959382441_);" d="M1718.7,2025.601
							c0,0-33.796,3.072-52.231-15.362c-18.434-18.435-36.868-52.231-9.216-55.303c27.651-3.073,55.302,12.289,55.302,12.289
							L1718.7,2025.601z"/>
						
							<linearGradient id="SVGID_00000084524549627491008160000004205120175219188406_" gradientUnits="userSpaceOnUse" x1="1715.5474" y1="1952.5415" x2="1562.4246" y2="2029.103">
							<stop  offset="0" style="stop-color:#FEBBBA"/>
							<stop  offset="1" style="stop-color:#FF928E"/>
						</linearGradient>
						<path style="fill:url(#SVGID_00000084524549627491008160000004205120175219188406_);" d="M1730.989,1967.226
							c0,0-79.882-49.158-129.04-18.434c0,0-9.217,36.868,18.435,52.23c0,0,49.158,33.797,89.099,15.362
							C1749.423,1997.95,1730.989,1967.226,1730.989,1967.226z"/>
						<g>
							<path style="fill:#BDD0FB;" d="M1420.062,1268.739c0,0,220.596-72.265,395.552-7.606l87.478,916.615
								c0,0-391.748-11.411-524.867,19.016L1420.062,1268.739z"/>
							
								<linearGradient id="SVGID_00000139272955272138287760000005534802378733070246_" gradientUnits="userSpaceOnUse" x1="1600.5721" y1="1408.2622" x2="1626.2727" y2="1188.3807">
								<stop  offset="0" style="stop-color:#FEBBBA"/>
								<stop  offset="1" style="stop-color:#FF928E"/>
							</linearGradient>
							<path style="fill:url(#SVGID_00000139272955272138287760000005534802378733070246_);" d="M1541.77,1131.817l-3.284,108.354
								c-0.325,10.714,6.32,20.369,16.431,23.935c27.704,9.772,85.057,24.63,139.41,5.168c10.964-3.926,17.564-15.15,15.87-26.673
								l-16.291-110.784H1541.77z"/>
							
								<linearGradient id="SVGID_00000049913790612319264810000011199348708541290145_" gradientUnits="userSpaceOnUse" x1="1419.5106" y1="868.0394" x2="1346.847" y2="2378.3894">
								<stop  offset="0" style="stop-color:#4F52FF"/>
								<stop  offset="1" style="stop-color:#4042E2"/>
							</linearGradient>
							<path style="fill:url(#SVGID_00000049913790612319264810000011199348708541290145_);" d="M1226.089,1344.806
								c0,0-205.382,684.609,0,775.89c205.383,91.281,376.535-129.316,376.535-129.316l-22.821-64.656
								c0,0-186.365,106.494-247.22,53.247c-60.854-53.247,41.838-365.124,41.838-365.124L1226.089,1344.806z"/>
							<polygon style="fill:#FFFFFF;" points="1539.787,1197.211 1624.467,1278.398 1563.317,1320.106 1509.259,1247.344 							"/>
							<polygon style="fill:#FFFFFF;" points="1701.963,1197.211 1617.283,1278.398 1678.433,1320.106 1732.491,1247.344 							"/>
							
								<linearGradient id="SVGID_00000020366828151838488170000013148249751819435150_" gradientUnits="userSpaceOnUse" x1="1624.5244" y1="1162.1415" x2="1614.694" y2="878.8478">
								<stop  offset="0" style="stop-color:#FEBBBA"/>
								<stop  offset="1" style="stop-color:#FF928E"/>
							</linearGradient>
							<path style="fill:url(#SVGID_00000020366828151838488170000013148249751819435150_);" d="M1746.887,935.944
								c0,0,6.233-117.675-123.609-127.413c-152.135-11.411-136.922,125.511-136.922,125.511s13.263,135.273,42.002,208.683
								c8.378,21.401,28.687,35.815,51.654,36.655c23.092,0.842,54.891,0.991,83.655-2.382
								c32.831-3.849,59.552-28.135,66.548-60.441C1739.006,1075.966,1749.109,1011.469,1746.887,935.944z"/>
							
								<linearGradient id="SVGID_00000134962768518451394440000001419195491325832845_" gradientUnits="userSpaceOnUse" x1="1757.3014" y1="1157.5364" x2="1747.4708" y2="874.2394">
								<stop  offset="0" style="stop-color:#FEBBBA"/>
								<stop  offset="1" style="stop-color:#FF928E"/>
							</linearGradient>
							<path style="fill:url(#SVGID_00000134962768518451394440000001419195491325832845_);" d="M1733.576,994.895
								c0,0,11.41-34.231,30.426-34.231c19.017,0-3.803,91.282-30.426,91.282V994.895z"/>
							
								<linearGradient id="SVGID_00000055683212300320400460000018227071643981985951_" gradientUnits="userSpaceOnUse" x1="1492.4529" y1="1166.7261" x2="1482.6224" y2="883.4314">
								<stop  offset="0" style="stop-color:#FEBBBA"/>
								<stop  offset="1" style="stop-color:#FF928E"/>
							</linearGradient>
							<path style="fill:url(#SVGID_00000055683212300320400460000018227071643981985951_);" d="M1503.664,1003.885
								c0,0-15.922-32.38-34.765-29.814c-18.843,2.564,16.078,89.934,42.459,86.344L1503.664,1003.885z"/>
							
								<linearGradient id="SVGID_00000075854139548253133090000003913652655371354517_" gradientUnits="userSpaceOnUse" x1="1739.4343" y1="1087.2764" x2="1554.822" y2="807.9913">
								<stop  offset="0" style="stop-color:#09005D"/>
								<stop  offset="1" style="stop-color:#1A0F91"/>
							</linearGradient>
							<path style="fill:url(#SVGID_00000075854139548253133090000003913652655371354517_);" d="M1695.542,888.401
								c0,0-96.902,99.663-202.487,99.275c0,0-59.946-160.129,57.959-186.753c117.904-26.623,121.708,7.606,121.708,7.606
								s137.873-33.862,76.542,161.828L1695.542,888.401z"/>
							
								<linearGradient id="SVGID_00000158023787168033133010000003711849603882870196_" gradientUnits="userSpaceOnUse" x1="1992.5927" y1="895.6099" x2="1919.9292" y2="2405.9573">
								<stop  offset="0" style="stop-color:#4F52FF"/>
								<stop  offset="1" style="stop-color:#4042E2"/>
							</linearGradient>
							<path style="fill:url(#SVGID_00000158023787168033133010000003711849603882870196_);" d="M1716.725,1949.543
								c0,0,216.793,121.708,270.041-34.231c53.247-155.938-45.642-254.826-45.642-254.826l114.102-300.468
								c0,0,216.793,399.355,64.657,642.772c-142.538,228.06-395.55,19.016-395.55,19.016L1716.725,1949.543z"/>
							<polygon style="fill:#91B3FA;" points="1611.949,1285.336 1580.356,1306.654 1602.624,1349.777 1638.933,1349.777 
								1663.202,1309.7 1621.848,1281.502 							"/>
							<polygon style="fill:#91B3FA;" points="1602.624,1349.777 1577.978,1760.284 1640.657,1873.718 1703.748,1764.33 
								1638.933,1349.777 							"/>
							
								<linearGradient id="SVGID_00000145743309006404232720000008572325004692343217_" gradientUnits="userSpaceOnUse" x1="1459.7842" y1="1041.4651" x2="1438.8799" y2="2039.6746">
								<stop  offset="0" style="stop-color:#4F52FF"/>
								<stop  offset="1" style="stop-color:#4042E2"/>
							</linearGradient>
							<path style="fill:url(#SVGID_00000145743309006404232720000008572325004692343217_);" d="M1226.089,1344.806
								c0,0,161.463-78.407,283.17-97.425l131.398,487.292l22.545,449.231c-0.909,23.162-240.141,42.686-262.869,47.231
								l-12.961,2.593c-12.465,2.493-24.009-7.255-23.643-19.961l11.384-392.725c2.051-70.744-10.835-141.125-37.815-206.553
								L1226.089,1344.806z"/>
							
								<linearGradient id="SVGID_00000089574770737990046260000003661625924648439222_" gradientUnits="userSpaceOnUse" x1="1858.3336" y1="1051.1143" x2="1837.45" y2="2048.3403">
								<stop  offset="0" style="stop-color:#4F52FF"/>
								<stop  offset="1" style="stop-color:#4042E2"/>
							</linearGradient>
							<path style="fill:url(#SVGID_00000089574770737990046260000003661625924648439222_);" d="M1727.727,1239.557
								c0,0,217.202,21.575,327.499,120.462l-85.73,242.063c-28.846,81.444-43.585,167.212-43.585,253.614l-18.047,348.94
								c-0.544,10.509-9.224,18.751-19.746,18.751l0,0c-25.975,0-245.145-19.827-247.461-45.699v-443.015L1727.727,1239.557z"/>
							<path style="fill:#7D97F4;" d="M1616.566,1713.363c-0.47,0-0.937-0.197-1.268-0.578l-117.079-135.023
								c-0.204-0.237-0.339-0.522-0.388-0.831l-11.849-72.667l-43.623-8.773c-0.759-0.154-1.314-0.805-1.344-1.577l-9.319-229.121
								c-0.039-0.927,0.68-1.709,1.607-1.745c0.828-0.168,1.705,0.68,1.745,1.607l9.266,227.803l43.469,8.744
								c0.683,0.138,1.213,0.687,1.324,1.377l11.961,73.344l116.767,134.662c0.608,0.7,0.532,1.761-0.167,2.369
								C1617.348,1713.228,1616.957,1713.363,1616.566,1713.363z"/>
							<path style="fill:#7D97F4;" d="M1644.02,1713.363c-0.391,0-0.782-0.135-1.101-0.411c-0.7-0.608-0.776-1.669-0.168-2.369
								l116.767-134.662l11.961-73.344c0.112-0.69,0.641-1.239,1.324-1.377l43.469-8.744l9.263-227.803
								c0.036-0.927,0.802-1.771,1.745-1.607c0.927,0.036,1.646,0.818,1.607,1.745l-9.315,229.121
								c-0.03,0.772-0.585,1.423-1.344,1.577l-43.623,8.773l-11.849,72.667c-0.049,0.309-0.184,0.595-0.388,0.831l-117.079,135.023
								C1644.956,1713.166,1644.49,1713.363,1644.02,1713.363z"/>
							
								<linearGradient id="SVGID_00000047023797869344772570000017714663805331139201_" gradientUnits="userSpaceOnUse" x1="1434.0327" y1="1689.9457" x2="1822.6412" y2="1008.6205">
								<stop  offset="0" style="stop-color:#4F52FF"/>
								<stop  offset="1" style="stop-color:#4042E2"/>
							</linearGradient>
							<path style="fill:url(#SVGID_00000047023797869344772570000017714663805331139201_);" d="M1254.141,1866.049l96.017-29.838
								l28.066,154.674h-124.083C1254.141,1990.885,1094.678,1948.71,1254.141,1866.049z"/>
							
								<linearGradient id="SVGID_00000180324767320402244390000002364312000283080111_" gradientUnits="userSpaceOnUse" x1="2128.4951" y1="1703.0817" x2="2421.2114" y2="1011.6638">
								<stop  offset="0" style="stop-color:#4F52FF"/>
								<stop  offset="1" style="stop-color:#4042E2"/>
							</linearGradient>
							<path style="fill:url(#SVGID_00000180324767320402244390000002364312000283080111_);" d="M2062.363,1866.488l-96.017-29.734
								l-28.066,154.131h124.083C2062.363,1990.885,2221.826,1948.86,2062.363,1866.488z"/>
							<g>
								<g>
									
										<linearGradient id="SVGID_00000162347503215089758170000012399438457629192832_" gradientUnits="userSpaceOnUse" x1="1350.1581" y1="1772.9895" x2="1953.6003" y2="1772.9895">
										<stop  offset="0" style="stop-color:#DAE3FE"/>
										<stop  offset="1" style="stop-color:#E9EFFD"/>
									</linearGradient>
									<polygon style="fill:url(#SVGID_00000162347503215089758170000012399438457629192832_);" points="1350.158,1653.873 
										1368.167,1911.402 1934.614,1933.827 1953.6,1612.152 									"/>
									<polygon style="fill:#FFFFFF;" points="1350.158,1653.873 1354.201,1711.685 1953.6,1612.152 									"/>
								</g>
								
									<linearGradient id="SVGID_00000127037984699997703410000007720528911428404641_" gradientUnits="userSpaceOnUse" x1="1419.9878" y1="1907.7639" x2="1347.1034" y2="1797.5029">
									<stop  offset="0" style="stop-color:#FEBBBA"/>
									<stop  offset="1" style="stop-color:#FF928E"/>
								</linearGradient>
								<path style="fill:url(#SVGID_00000127037984699997703410000007720528911428404641_);" d="M1334.521,1876.628
									c0,0-12.357-56.068,6.437-70.81c18.795-14.742,56.097-62.534,59.775-37.704c3.678,24.83-14.714,78.167-14.714,78.167
									s13.794,1.839,8.277,23.91s-37.704,34.945-48.74,33.106C1334.521,1901.457,1334.521,1876.628,1334.521,1876.628z"/>
								
									<linearGradient id="SVGID_00000024719565121134193660000017118703682705837967_" gradientUnits="userSpaceOnUse" x1="-4374.9136" y1="1907.7639" x2="-4447.7979" y2="1797.5029" gradientTransform="matrix(-1 0 0 1 -2481.9517 0)">
									<stop  offset="0" style="stop-color:#FEBBBA"/>
									<stop  offset="1" style="stop-color:#FF928E"/>
								</linearGradient>
								<path style="fill:url(#SVGID_00000024719565121134193660000017118703682705837967_);" d="M1978.429,1876.628
									c0,0,12.357-56.068-6.437-70.81c-18.794-14.742-56.097-62.534-59.775-37.704c-3.678,24.83,14.714,78.167,14.714,78.167
									s-13.794,1.839-8.277,23.91s37.704,34.945,48.74,33.106C1978.429,1901.457,1978.429,1876.628,1978.429,1876.628z"/>
							</g>
						</g>
						<g>
							<rect x="873.565" y="1966.446" style="fill:#91B3FA;" width="1574.702" height="567.839"/>
							<polygon style="fill:#7D97F4;" points="870.934,2000.622 829.231,1908.611 2475.401,1908.611 2440.283,2000.622 							"/>
						</g>
					</g>
				</g>
				<g>
					
						<linearGradient id="SVGID_00000157995297007759835360000013370631657121705606_" gradientUnits="userSpaceOnUse" x1="1732.4684" y1="1917.9886" x2="1547.5985" y2="2592.9124">
						<stop  offset="0" style="stop-color:#4F52FF"/>
						<stop  offset="1" style="stop-color:#4042E2"/>
					</linearGradient>
					<path style="fill:url(#SVGID_00000157995297007759835360000013370631657121705606_);" d="M2276.086,2200.037H1046.778
						c-12.536,0-22.699-10.162-22.699-22.698s10.162-22.698,21.632-22.698h1229.308c13.604,0,23.766,10.162,23.766,22.698
						S2288.622,2200.037,2276.086,2200.037z"/>
					
						<linearGradient id="SVGID_00000047769663149110215830000004638655366577283257_" gradientUnits="userSpaceOnUse" x1="2128.5505" y1="220.1363" x2="2052.8479" y2="492.6658">
						<stop  offset="0" style="stop-color:#09005D"/>
						<stop  offset="1" style="stop-color:#1A0F91"/>
					</linearGradient>
					
						<circle style="fill:url(#SVGID_00000047769663149110215830000004638655366577283257_);" cx="1585.935" cy="2173.554" r="44.817"/>
				</g>
			</g>
			<path style="opacity:0.6;fill:#FFFFFF;" d="M1603.033,2791.469h-588.3c-19.054,0-34.5-15.446-34.5-34.5v-403.875
				c0-6.904,5.596-12.5,12.5-12.5h615.8c6.075,0,11,4.925,11,11v423.375C1619.533,2784.081,1612.146,2791.469,1603.033,2791.469z"/>
			<path style="opacity:0.6;fill:#FFFFFF;" d="M2290.763,2788.104h-594.3c-7.18,0-13-5.82-13-13v-423.875c0-7.732,6.268-14,14-14
				h609.3c8.837,0,16,7.164,16,16v402.875C2322.763,2773.777,2308.436,2788.104,2290.763,2788.104z"/>
		</g>
		<g>
			<g>
				
					<linearGradient id="SVGID_00000074429895933007668310000001699507035967927952_" gradientUnits="userSpaceOnUse" x1="2584.9854" y1="346.9199" x2="2509.2827" y2="619.4502">
					<stop  offset="0" style="stop-color:#FEBBBA"/>
					<stop  offset="1" style="stop-color:#FF928E"/>
				</linearGradient>
				<path style="fill:url(#SVGID_00000074429895933007668310000001699507035967927952_);" d="M2908.15,546.825
					c0-14.104-11.434-25.538-25.538-25.538h-916.083c-14.104,0-25.538,11.434-25.538,25.538v755.18
					c0,14.104,11.434,25.538,25.538,25.538h916.083c14.104,0,25.538-11.434,25.538-25.538V546.825z"/>
				<g style="opacity:0.9;">
					<path style="fill:#FFFFFF;" d="M2834.416,647.598H2015.16c-14.104,0-25.537,11.433-25.537,25.538v580.952
						c0,14.104,11.433,25.537,25.537,25.537h819.256c14.104,0,25.537-11.433,25.537-25.537V673.136
						C2859.953,659.031,2848.52,647.598,2834.416,647.598z"/>
				</g>
				<g>
					<g>
						<g>
							<path style="fill:#FCF7F4;" d="M2638.343,622.84c-20.987,0-38.056-17.072-38.056-38.056c0-20.984,17.07-38.057,38.056-38.057
								c20.986,0,38.056,17.072,38.056,38.057C2676.399,605.768,2659.329,622.84,2638.343,622.84z M2638.343,556.392
								c-15.654,0-28.391,12.737-28.391,28.391c0,15.654,12.737,28.391,28.391,28.391c15.654,0,28.391-12.737,28.391-28.391
								C2666.734,569.129,2653.997,556.392,2638.343,556.392z"/>
						</g>
						<g>
							<path style="fill:#FCF7F4;" d="M2732.408,622.84c-20.987,0-38.056-17.072-38.056-38.056c0-20.984,17.07-38.057,38.056-38.057
								c20.987,0,38.057,17.072,38.057,38.057C2770.465,605.768,2753.395,622.84,2732.408,622.84z M2732.408,556.392
								c-15.654,0-28.391,12.737-28.391,28.391c0,15.654,12.738,28.391,28.391,28.391c15.654,0,28.391-12.737,28.391-28.391
								C2760.799,569.129,2748.062,556.392,2732.408,556.392z"/>
						</g>
					</g>
					<g>
						<g>
							<path style="fill:#FCF7F4;" d="M2732.663,622.84c-20.986,0-38.056-17.072-38.056-38.056c0-20.984,17.07-38.057,38.056-38.057
								c20.987,0,38.056,17.072,38.056,38.057C2770.719,605.768,2753.649,622.84,2732.663,622.84z M2732.663,556.392
								c-15.654,0-28.391,12.737-28.391,28.391c0,15.654,12.738,28.391,28.391,28.391c15.654,0,28.391-12.737,28.391-28.391
								C2761.054,569.129,2748.317,556.392,2732.663,556.392z"/>
						</g>
						<g>
							<path style="fill:#FCF7F4;" d="M2826.728,622.84c-20.987,0-38.056-17.072-38.056-38.056c0-20.984,17.07-38.057,38.056-38.057
								c20.987,0,38.057,17.072,38.057,38.057C2864.785,605.768,2847.715,622.84,2826.728,622.84z M2826.728,556.392
								c-15.654,0-28.391,12.737-28.391,28.391c0,15.654,12.737,28.391,28.391,28.391c15.654,0,28.391-12.737,28.391-28.391
								C2855.119,569.129,2842.382,556.392,2826.728,556.392z"/>
						</g>
					</g>
				</g>
			</g>
			<g>
				<g>
					
						<linearGradient id="SVGID_00000136407828251224314530000012590905761795783075_" gradientUnits="userSpaceOnUse" x1="2092.8672" y1="30.5427" x2="2092.8672" y2="308.1201">
						<stop  offset="0" style="stop-color:#FF928E"/>
						<stop  offset="1" style="stop-color:#FE7062"/>
					</linearGradient>
					<path style="fill:url(#SVGID_00000136407828251224314530000012590905761795783075_);" d="M2053.199,788.154h33.301
						c15.174,0,26.189,2.159,33.045,6.477c6.854,4.318,10.283,11.185,10.283,20.602c0,6.393-1.501,11.637-4.501,15.736
						c-3,4.098-6.99,6.563-11.966,7.391v0.732c6.781,1.513,11.673,4.343,14.674,8.489c3,4.148,4.501,9.661,4.501,16.541
						c0,9.759-3.526,17.371-10.575,22.835c-7.052,5.464-16.627,8.197-28.727,8.197h-40.035V788.154z M2075.888,830.53h13.173
						c6.148,0,10.6-0.952,13.357-2.855c2.756-1.903,4.135-5.049,4.135-9.441c0-4.098-1.5-7.038-4.5-8.818
						c-3-1.781-7.746-2.672-14.235-2.672h-11.929V830.53z M2075.888,848.534v27.884h14.783c6.246,0,10.856-1.194,13.833-3.586
						c2.976-2.391,4.464-6.049,4.464-10.978c0-8.879-6.343-13.32-19.028-13.32H2075.888z"/>
					
						<linearGradient id="SVGID_00000064315029236630159680000007563267006210892732_" gradientUnits="userSpaceOnUse" x1="2196.6482" y1="30.5427" x2="2196.6482" y2="308.1201">
						<stop  offset="0" style="stop-color:#FF928E"/>
						<stop  offset="1" style="stop-color:#FE7062"/>
					</linearGradient>
					<path style="fill:url(#SVGID_00000064315029236630159680000007563267006210892732_);" d="M2176.595,854.096v41.059h-22.689
						V788.154h31.178c14.54,0,25.298,2.647,32.276,7.94c6.977,5.295,10.466,13.333,10.466,24.116c0,6.294-1.732,11.893-5.196,16.796
						c-3.466,4.903-8.37,8.745-14.711,11.527c16.102,24.055,26.591,39.595,31.471,46.621h-25.177l-25.543-41.059H2176.595z
						 M2176.595,835.653h7.319c7.172,0,12.465-1.195,15.882-3.586c3.414-2.391,5.123-6.148,5.123-11.271
						c0-5.074-1.745-8.684-5.234-10.832c-3.488-2.147-8.892-3.22-16.211-3.22h-6.879V835.653z"/>
					
						<linearGradient id="SVGID_00000044865219793471455280000001844564945157738894_" gradientUnits="userSpaceOnUse" x1="2283.6697" y1="30.5427" x2="2283.6697" y2="308.1201">
						<stop  offset="0" style="stop-color:#FF928E"/>
						<stop  offset="1" style="stop-color:#FE7062"/>
					</linearGradient>
					<path style="fill:url(#SVGID_00000044865219793471455280000001844564945157738894_);" d="M2314.482,895.155h-61.625V788.154
						h61.625v18.59h-38.937v23.493h36.229v18.59h-36.229v27.591h38.937V895.155z"/>
					
						<linearGradient id="SVGID_00000082356922139978603630000000297603880723688623_" gradientUnits="userSpaceOnUse" x1="2375.0454" y1="30.5425" x2="2375.0454" y2="308.1194">
						<stop  offset="0" style="stop-color:#FF928E"/>
						<stop  offset="1" style="stop-color:#FE7062"/>
					</linearGradient>
					<path style="fill:url(#SVGID_00000082356922139978603630000000297603880723688623_);" d="M2402.308,895.155l-7.758-25.47
						h-39.01l-7.757,25.47h-24.445l37.765-107.44h27.738l37.912,107.44H2402.308z M2389.134,850.657
						c-7.172-23.078-11.21-36.13-12.113-39.156c-0.903-3.024-1.549-5.416-1.939-7.172c-1.61,6.245-6.221,21.688-13.832,46.328
						H2389.134z"/>
					
						<linearGradient id="SVGID_00000110459611359392015160000000686492495964487584_" gradientUnits="userSpaceOnUse" x1="2483.2539" y1="30.5427" x2="2483.2539" y2="308.1201">
						<stop  offset="0" style="stop-color:#FF928E"/>
						<stop  offset="1" style="stop-color:#FE7062"/>
					</linearGradient>
					<path style="fill:url(#SVGID_00000110459611359392015160000000686492495964487584_);" d="M2526.288,895.155h-25.761
						l-28.031-45.083l-9.588,6.879v38.205h-22.688V788.154h22.688v48.962l8.929-12.587l28.983-36.375h25.176l-37.325,47.352
						L2526.288,895.155z"/>
					
						<linearGradient id="SVGID_00000039117202619832162630000008637476667037222846_" gradientUnits="userSpaceOnUse" x1="2551.1001" y1="30.5427" x2="2551.1001" y2="308.1201">
						<stop  offset="0" style="stop-color:#FF928E"/>
						<stop  offset="1" style="stop-color:#FE7062"/>
					</linearGradient>
					<path style="fill:url(#SVGID_00000039117202619832162630000008637476667037222846_);" d="M2539.756,895.155V788.154h22.688
						v107.001H2539.756z"/>
					
						<linearGradient id="SVGID_00000165931081314489788970000005834205949394966657_" gradientUnits="userSpaceOnUse" x1="2636.8398" y1="30.5427" x2="2636.8398" y2="308.1201">
						<stop  offset="0" style="stop-color:#FF928E"/>
						<stop  offset="1" style="stop-color:#FE7062"/>
					</linearGradient>
					<path style="fill:url(#SVGID_00000165931081314489788970000005834205949394966657_);" d="M2684.302,895.155h-28.836
						l-46.548-80.947h-0.658c0.926,14.298,1.39,24.495,1.39,30.593v50.354h-20.273V788.154h28.616l46.475,80.14h0.512
						c-0.732-13.905-1.098-23.736-1.098-29.494v-50.646h20.418V895.155z"/>
					
						<linearGradient id="SVGID_00000082348648984764787220000003432433583708110498_" gradientUnits="userSpaceOnUse" x1="2750.3918" y1="30.543" x2="2750.3918" y2="308.1194">
						<stop  offset="0" style="stop-color:#FF928E"/>
						<stop  offset="1" style="stop-color:#FE7062"/>
					</linearGradient>
					<path style="fill:url(#SVGID_00000082348648984764787220000003432433583708110498_);" d="M2751.855,835.068h42.45v55.477
						c-6.88,2.245-13.357,3.819-19.431,4.72c-6.075,0.903-12.284,1.354-18.627,1.354c-16.15,0-28.482-4.745-36.996-14.234
						c-8.515-9.489-12.771-23.116-12.771-40.876c0-17.272,4.94-30.739,14.821-40.4c9.879-9.661,23.578-14.492,41.094-14.492
						c10.979,0,21.566,2.195,31.764,6.586l-7.538,18.151c-7.806-3.903-15.931-5.855-24.371-5.855
						c-9.808,0-17.664,3.293-23.567,9.881c-5.903,6.586-8.856,15.442-8.856,26.567c0,11.613,2.379,20.482,7.136,26.604
						c4.756,6.125,11.673,9.185,20.749,9.185c4.732,0,9.539-0.486,14.417-1.463V853.95h-20.273V835.068z"/>
				</g>
				<g>
					
						<linearGradient id="SVGID_00000166677346884077966010000006896755032183202235_" gradientUnits="userSpaceOnUse" x1="2138.3748" y1="30.5423" x2="2138.3748" y2="308.119">
						<stop  offset="0" style="stop-color:#FF928E"/>
						<stop  offset="1" style="stop-color:#FE7062"/>
					</linearGradient>
					<path style="fill:url(#SVGID_00000166677346884077966010000006896755032183202235_);" d="M2223.551,1145.671h-51.749
						l-83.534-145.265h-1.184c1.664,25.658,2.498,43.958,2.498,54.902v90.363h-36.384V953.649h51.357l83.401,143.818h0.92
						c-1.314-24.953-1.97-42.597-1.97-52.93v-90.889h36.645V1145.671z"/>
					
						<linearGradient id="SVGID_00000180328359293543685920000007604700266973923723_" gradientUnits="userSpaceOnUse" x1="2327.1799" y1="30.5423" x2="2327.1799" y2="308.119">
						<stop  offset="0" style="stop-color:#FF928E"/>
						<stop  offset="1" style="stop-color:#FE7062"/>
					</linearGradient>
					<path style="fill:url(#SVGID_00000180328359293543685920000007604700266973923723_);" d="M2382.475,1145.671h-110.591V953.649
						h110.591v33.361H2312.6v42.16h65.015v33.361H2312.6v49.515h69.875V1145.671z"/>
					
						<linearGradient id="SVGID_00000011710120343224068900000017708330593351800238_" gradientUnits="userSpaceOnUse" x1="2528.3967" y1="30.5423" x2="2528.3967" y2="308.119">
						<stop  offset="0" style="stop-color:#FF928E"/>
						<stop  offset="1" style="stop-color:#FE7062"/>
					</linearGradient>
					<path style="fill:url(#SVGID_00000011710120343224068900000017708330593351800238_);" d="M2609.566,1145.671h-46.364
						l-26.006-100.871c-0.964-3.59-2.607-11.01-4.925-22.262c-2.323-11.25-3.657-18.803-4.005-22.657
						c-0.525,4.729-1.839,12.326-3.942,22.787c-2.101,10.466-3.72,17.93-4.86,22.395l-25.873,100.608h-46.233l-48.99-192.021h40.06
						l24.562,104.809c4.288,19.354,7.397,36.12,9.325,50.306c0.525-4.993,1.727-12.718,3.611-23.182
						c1.884-10.464,3.655-18.586,5.319-24.365l27.976-107.568h38.484l27.976,107.568c1.225,4.818,2.757,12.172,4.596,22.066
						c1.839,9.896,3.24,18.388,4.204,25.481c0.875-6.832,2.276-15.347,4.204-25.546c1.923-10.2,3.676-18.453,5.254-24.76
						l24.428-104.809h40.06L2609.566,1145.671z"/>
					
						<linearGradient id="SVGID_00000004507967566590712350000014180833408482777987_" gradientUnits="userSpaceOnUse" x1="2733.3569" y1="30.5431" x2="2733.3569" y2="308.1199">
						<stop  offset="0" style="stop-color:#FF928E"/>
						<stop  offset="1" style="stop-color:#FE7062"/>
					</linearGradient>
					<path style="fill:url(#SVGID_00000004507967566590712350000014180833408482777987_);" d="M2795.942,1092.347
						c0,17.337-6.239,30.996-18.717,40.977c-12.478,9.983-29.836,14.973-52.078,14.973c-20.489,0-38.615-3.851-54.375-11.556
						v-37.828c12.957,5.779,23.924,9.852,32.901,12.216c8.974,2.362,17.183,3.546,24.627,3.546c8.93,0,15.781-1.709,20.554-5.123
						c4.773-3.415,7.159-8.491,7.159-15.234c0-3.765-1.05-7.114-3.151-10.048c-2.103-2.934-5.189-5.756-9.26-8.473
						c-4.073-2.712-12.37-7.047-24.89-13.003c-11.736-5.515-20.535-10.811-26.401-15.89s-10.552-10.989-14.053-17.732
						c-3.503-6.741-5.254-14.623-5.254-23.642c0-16.987,5.758-30.341,17.272-40.06c11.514-9.719,27.428-14.579,47.743-14.579
						c9.983,0,19.503,1.181,28.567,3.545s18.54,5.693,28.436,9.983l-13.134,31.652c-10.244-4.201-18.717-7.135-25.416-8.799
						c-6.699-1.662-13.288-2.495-19.767-2.495c-7.705,0-13.617,1.795-17.73,5.385c-4.117,3.592-6.174,8.274-6.174,14.053
						c0,3.592,0.831,6.722,2.495,9.392c1.662,2.67,4.311,5.254,7.945,7.749c3.634,2.495,12.235,6.983,25.81,13.463
						c17.949,8.582,30.252,17.183,36.906,25.808C2792.613,1069.251,2795.942,1079.824,2795.942,1092.347z"/>
				</g>
			</g>
		</g>
		<g>
			<g>
				
					<linearGradient id="SVGID_00000014593988325867696170000012197646845355569570_" gradientUnits="userSpaceOnUse" x1="2957.0295" y1="450.2651" x2="2881.3269" y2="722.7952">
					<stop  offset="0" style="stop-color:#FF928E"/>
					<stop  offset="1" style="stop-color:#FE7062"/>
				</linearGradient>
				<path style="fill:url(#SVGID_00000014593988325867696170000012197646845355569570_);" d="M3020.929,1226.138
					c0-10.39-8.422-18.812-18.812-18.812h-675.941c-10.389,0-18.811,8.422-18.811,18.812v557.013
					c0,10.39,8.422,18.812,18.811,18.812h675.941c10.389,0,18.812-8.422,18.812-18.812V1226.138z"/>
				<g style="opacity:0.9;">
					<path style="fill:#FFFFFF;" d="M2965.47,1301.191h-603.472c-10.389,0-18.811,8.422-18.811,18.811v427.935
						c0,10.389,8.422,18.811,18.811,18.811h603.472c10.389,0,18.811-8.422,18.811-18.811v-427.935
						C2984.281,1309.613,2975.86,1301.191,2965.47,1301.191z"/>
				</g>
				<g>
					<g>
						<g>
							<path style="fill:#FCF7F4;" d="M2821.041,1282.954c-15.459,0-28.033-12.575-28.033-28.033
								c0-15.457,12.574-28.033,28.033-28.033c15.459,0,28.033,12.575,28.033,28.033
								C2849.074,1270.379,2836.5,1282.954,2821.041,1282.954z M2821.041,1234.008c-11.531,0-20.913,9.382-20.913,20.913
								s9.382,20.913,20.913,20.913c11.531,0,20.913-9.382,20.913-20.913S2832.572,1234.008,2821.041,1234.008z"/>
						</g>
						<g>
							<path style="fill:#FCF7F4;" d="M2890.33,1282.954c-15.459,0-28.033-12.575-28.033-28.033
								c0-15.457,12.573-28.033,28.033-28.033s28.033,12.575,28.033,28.033C2918.363,1270.379,2905.79,1282.954,2890.33,1282.954z
								 M2890.33,1234.008c-11.531,0-20.913,9.382-20.913,20.913s9.383,20.913,20.913,20.913c11.531,0,20.913-9.382,20.913-20.913
								S2901.861,1234.008,2890.33,1234.008z"/>
						</g>
					</g>
					<g>
						<g>
							<path style="fill:#FCF7F4;" d="M2890.518,1282.954c-15.459,0-28.033-12.575-28.033-28.033
								c0-15.457,12.574-28.033,28.033-28.033s28.033,12.575,28.033,28.033C2918.551,1270.379,2905.977,1282.954,2890.518,1282.954z
								 M2890.518,1234.008c-11.531,0-20.914,9.382-20.914,20.913s9.383,20.913,20.914,20.913c11.531,0,20.913-9.382,20.913-20.913
								S2902.049,1234.008,2890.518,1234.008z"/>
						</g>
						<g>
							<path style="fill:#FCF7F4;" d="M2959.808,1282.954c-15.459,0-28.033-12.575-28.033-28.033
								c0-15.457,12.574-28.033,28.033-28.033c15.459,0,28.033,12.575,28.033,28.033
								C2987.84,1270.379,2975.267,1282.954,2959.808,1282.954z M2959.808,1234.008c-11.531,0-20.913,9.382-20.913,20.913
								s9.382,20.913,20.913,20.913c11.531,0,20.913-9.382,20.913-20.913S2971.338,1234.008,2959.808,1234.008z"/>
						</g>
					</g>
				</g>
			</g>
			
				<linearGradient id="SVGID_00000023978908116616540440000001683381915038096562_" gradientUnits="userSpaceOnUse" x1="2962.1406" y1="451.6856" x2="2886.438" y2="724.2158">
				<stop  offset="0" style="stop-color:#FF928E"/>
				<stop  offset="1" style="stop-color:#FE7062"/>
			</linearGradient>
			
				<circle style="fill:url(#SVGID_00000023978908116616540440000001683381915038096562_);" cx="2663.734" cy="1525.949" r="166.12"/>
			<g>
				<path style="fill:#FCF7F4;" d="M2650.975,1565.857h25.87c4.52,0,8.245-2.451,8.464-6.966l7.28-149.38
					c0.113-2.315-0.729-5.035-2.328-6.715s-3.817-3.088-6.136-3.088h-40.761c-2.322,0-4.542,1.686-6.142,3.369
					s-2.439,4.316-2.321,6.634l7.611,149.014C2642.74,1563.233,2646.462,1565.857,2650.975,1565.857z"/>
				<path style="fill:#FCF7F4;" d="M2663.919,1586.47c-19.525,0-33.155,13.997-33.155,33.521c0,19.157,13.262,33.522,33.155,33.522
					c19.893,0,32.786-14.365,32.786-33.522C2696.337,1600.468,2683.443,1586.47,2663.919,1586.47z"/>
			</g>
		</g>
		<g>
			
				<linearGradient id="SVGID_00000046300531590818823620000003879197043800440988_" gradientUnits="userSpaceOnUse" x1="525.9652" y1="1919.2101" x2="605.0366" y2="2109.3174">
				<stop  offset="0" style="stop-color:#FF928E"/>
				<stop  offset="1" style="stop-color:#FEB3B1"/>
			</linearGradient>
			<path style="fill:url(#SVGID_00000046300531590818823620000003879197043800440988_);" d="M463.548,1955.121
				c0,0,0,197.733,86.688,181.613c52.964-9.849,84.324-222.856,84.324-222.856s-54.801-122.063-60.92-82.109
				C529.155,2122.217,496.02,1899.917,463.548,1955.121z"/>
			
				<linearGradient id="SVGID_00000095317173834099682700000010778415904788385429_" gradientUnits="userSpaceOnUse" x1="5241.8218" y1="2806.5024" x2="5246.3291" y2="3302.2825" gradientTransform="matrix(-1 0 0 1 5840.2964 0)">
				<stop  offset="0" style="stop-color:#4F52FF"/>
				<stop  offset="1" style="stop-color:#4042E2"/>
			</linearGradient>
			<path style="fill:url(#SVGID_00000095317173834099682700000010778415904788385429_);" d="M696.375,3128.79
				c0,0,6.546,37.058,9.755,73.74c1.255,14.337-9.798,26.785-24.177,27.384c-48.85,2.034-153.343,5.99-190.839,4.317
				c-5.636-0.251-9.321-6.022-7.236-11.265l0,0c1.748-4.393,5.121-7.945,9.415-9.92l172.604-79.327L696.375,3128.79z"/>
			
				<linearGradient id="SVGID_00000000209929896912806790000017701491773948970380_" gradientUnits="userSpaceOnUse" x1="5138.5586" y1="3128.6377" x2="5194.7031" y2="3128.6377" gradientTransform="matrix(-1 0 0 1 5840.2964 0)">
				<stop  offset="0" style="stop-color:#FF928E"/>
				<stop  offset="1" style="stop-color:#FEB3B1"/>
			</linearGradient>
			<path style="fill:url(#SVGID_00000000209929896912806790000017701491773948970380_);" d="M701.737,3107.018l-5.26,44.325
				c0,0-30.235,14.074-50.884-1.774l12.522-49.396L701.737,3107.018z"/>
			
				<linearGradient id="SVGID_00000183231035428729013300000016834979897661195648_" gradientUnits="userSpaceOnUse" x1="5075.123" y1="3342.2625" x2="5113.4414" y2="2314.0696" gradientTransform="matrix(-1 0 0 1 5840.2964 0)">
				<stop  offset="0" style="stop-color:#4F52FF"/>
				<stop  offset="1" style="stop-color:#4042E2"/>
			</linearGradient>
			<path style="fill:url(#SVGID_00000183231035428729013300000016834979897661195648_);" d="M697.785,2273.688
				c2.272,11.574,12.193,577.634-48.314,831.304c-0.987,4.139,1.111,8.406,5.051,10.015c9.28,3.791,27.472,9.282,49.278,10.014
				c6.752,0.227,12.806-4.161,14.711-10.644c17.295-58.854,100.174-353.737,110.985-635.43c12.082-314.763,0-10.716,0-10.716
				l-7.085-194.568L697.785,2273.688z"/>
			
				<linearGradient id="SVGID_00000158716500348496658790000013863436083267941274_" gradientUnits="userSpaceOnUse" x1="4965.8335" y1="2809.0132" x2="4970.3413" y2="3304.792" gradientTransform="matrix(-1 0 0 1 5840.2964 0)">
				<stop  offset="0" style="stop-color:#4F52FF"/>
				<stop  offset="1" style="stop-color:#4042E2"/>
			</linearGradient>
			<path style="fill:url(#SVGID_00000158716500348496658790000013863436083267941274_);" d="M894.925,3148.123
				c0,0,10.421,18.708,20.508,68.419c1.821,8.978-4.452,17.571-13.568,18.466c-16.131,1.586-40.963,3.626-60.853,3.489
				c-9.17-0.063-16.326-8.047-15.222-17.15c2.204-18.145,9.068-47.915,30.272-71.118L894.925,3148.123z"/>
			
				<linearGradient id="SVGID_00000085971979252704903060000010459930104922809477_" gradientUnits="userSpaceOnUse" x1="4936.2188" y1="3125.7585" x2="4984.6929" y2="3125.7585" gradientTransform="matrix(-1 0 0 1 5840.2964 0)">
				<stop  offset="0" style="stop-color:#FF928E"/>
				<stop  offset="1" style="stop-color:#FEB3B1"/>
			</linearGradient>
			<path style="fill:url(#SVGID_00000085971979252704903060000010459930104922809477_);" d="M904.077,3091.11l-12.288,67.032
				c0,0-12.151,9.037-36.186,2.485l5.865-72.121L904.077,3091.11z"/>
			
				<linearGradient id="SVGID_00000150101982453860699980000010138132000927654325_" gradientUnits="userSpaceOnUse" x1="4980.3555" y1="3338.7312" x2="5018.6738" y2="2310.54" gradientTransform="matrix(-1 0 0 1 5840.2964 0)">
				<stop  offset="0" style="stop-color:#4F52FF"/>
				<stop  offset="1" style="stop-color:#4042E2"/>
			</linearGradient>
			<path style="fill:url(#SVGID_00000150101982453860699980000010138132000927654325_);" d="M937.274,2291.058
				c49.488,298.657-10.734,738.157-31.045,824.177c-1.243,5.266-5.494,9.302-10.831,10.186c-9.065,1.503-23.991,2.73-38.707-1.545
				c-5.069-1.471-8.632-6.044-8.838-11.321c-2.726-69.545,2.18-496.484-43.931-665.213c-2.337-8.551-7.559-16.007-14.783-21.144
				l-89.499-63.625l-6.861-102.844L937.274,2291.058z"/>
			<g>
				
					<linearGradient id="SVGID_00000029021012727707266990000015253035239609791115_" gradientUnits="userSpaceOnUse" x1="1326.2045" y1="-2.7411" x2="1250.5017" y2="269.7891">
					<stop  offset="0" style="stop-color:#FF928E"/>
					<stop  offset="1" style="stop-color:#FE7062"/>
				</linearGradient>
				<path style="fill:url(#SVGID_00000029021012727707266990000015253035239609791115_);" d="M616.492,1736.439
					C797.185,1718.37,933.88,1764.1,933.88,1764.1c44.207,257.94,7.731,555.457,7.731,555.457
					c-114.813,30.109-244.328-18.409-244.328-18.409c-19.083-107.812-98.595-356.763-98.595-356.763
					c-36.23-4.496-70.23,13.804-62.412-36.49C544.094,1857.602,593.73,1738.715,616.492,1736.439z"/>
			</g>
			
				<linearGradient id="SVGID_00000180344918603948347470000007537584741011296951_" gradientUnits="userSpaceOnUse" x1="702.4708" y1="2180.0962" x2="975.0145" y2="2047.1891">
				<stop  offset="0" style="stop-color:#FF928E"/>
				<stop  offset="1" style="stop-color:#FEB3B1"/>
			</linearGradient>
			<path style="fill:url(#SVGID_00000180344918603948347470000007537584741011296951_);" d="M743.897,2042.825
				c0,0,155.528,87.897,208.004,12.843c10.895-15.584,25.97-35.661,23.285-50.427c46.62-23.54,92.712-28.916,118.887-30.843
				c6.868,35.976-7.698,77.394-28.838,116.066c-91.923,168.152-341.921-9.293-341.921-9.293L743.897,2042.825z"/>
			<g>
				
					<linearGradient id="SVGID_00000089543105786318476110000006792197171459395722_" gradientUnits="userSpaceOnUse" x1="-2789.5002" y1="1836.511" x2="-2885.0288" y2="2060.636" gradientTransform="matrix(1 0 0 1 3461.998 0)">
					<stop  offset="0" style="stop-color:#09005D"/>
					<stop  offset="1" style="stop-color:#1A0F91"/>
				</linearGradient>
				<path style="fill:url(#SVGID_00000089543105786318476110000006792197171459395722_);" d="M715.368,2102.454l-51.025-178.193
					c-0.58-2.022-2.305-3.498-4.395-3.741c-9.245-1.078-36.033-4.107-66.963-6.723c-37.256-3.152-80.521-5.705-106.375-3.533
					c-3.676,0.308-5.897,4.196-4.263,7.502c14.702,29.745,75.177,150.736,105.462,190.372c1.003,1.313,2.555,2.081,4.206,2.065
					l118.388-1.101C713.849,2109.07,716.317,2105.765,715.368,2102.454z"/>
				
					<linearGradient id="SVGID_00000041257475509652090690000012368094160798510515_" gradientUnits="userSpaceOnUse" x1="642.0075" y1="1690.0316" x2="665.5605" y2="1836.3971">
					<stop  offset="0" style="stop-color:#FF928E"/>
					<stop  offset="1" style="stop-color:#FEB3B1"/>
				</linearGradient>
				<path style="fill:url(#SVGID_00000041257475509652090690000012368094160798510515_);" d="M729.462,2082.687
					c7.042,0.776,13.522-3.925,14.961-10.862c3.174-15.303,8.076-43.112,4.71-55.288c-4.77-17.249-14.012-39.427-44.814-34.499
					c-30.801,4.929-67.138,17.904-67.138,17.904s1.836,22.469,25.246,15.219l-14.517,11.233c0,0,2.076,17.991,21.851,8.379
					l-13.503,14.896c0,0,8.492,14.776,23.04,5.299C692.219,2046.552,699.165,2079.347,729.462,2082.687z"/>
				
					<linearGradient id="SVGID_00000160909312922488412670000012210406301285173905_" gradientUnits="userSpaceOnUse" x1="502.3405" y1="1476.5428" x2="507.3878" y2="1782.7343">
					<stop  offset="0" style="stop-color:#FF928E"/>
					<stop  offset="1" style="stop-color:#FEB3B1"/>
				</linearGradient>
				<path style="fill:url(#SVGID_00000160909312922488412670000012210406301285173905_);" d="M504.516,2007.18
					c0,0-35.845-34.911-40.968-52.059c-5.123-17.148-9.074-40.847,19.641-53.035c28.715-12.187,66.393-20.495,66.393-20.495
					s10.379,20.011-13.305,26.305l18.266,1.806c0,0,7.798,16.344-14.061,18.707l19.353,5.447c0,0,0.655,17.03-16.705,16.729
					C525.77,1950.283,542.581,1990.223,504.516,2007.18z"/>
			</g>
			
				<linearGradient id="SVGID_00000077314354838553078690000008724256222926432146_" gradientUnits="userSpaceOnUse" x1="741.3026" y1="1580.1637" x2="741.3026" y2="1894.7671">
				<stop  offset="0" style="stop-color:#FF928E"/>
				<stop  offset="1" style="stop-color:#FEB3B1"/>
			</linearGradient>
			<path style="fill:url(#SVGID_00000077314354838553078690000008724256222926432146_);" d="M765.596,1623.182l47.187,136.464
				c0.782,2.26-0.148,4.764-2.241,5.922c-12.863,7.111-59.205,27.668-115.052-7.74c-5.819-3.688-9.779-9.704-10.662-16.536
				l-15.281-118.11H765.596z"/>
			<g>
				
					<linearGradient id="SVGID_00000101824781996103055860000000628303239618791822_" gradientUnits="userSpaceOnUse" x1="-29.1654" y1="5090.5518" x2="9.5288" y2="4616.123" gradientTransform="matrix(-0.9948 -0.1017 -0.1017 0.9948 1079.2147 1862.0973)">
					<stop  offset="0" style="stop-color:#FF928E"/>
					<stop  offset="1" style="stop-color:#FEB3B1"/>
				</linearGradient>
				<path style="fill:url(#SVGID_00000101824781996103055860000000628303239618791822_);" d="M624.692,1589.409
					c0,0,15.248,109.392,43.739,137.407c28.491,28.015,78.843-11.945,105.489-70.756l-30.04-108.286L624.692,1589.409z"/>
				
					<linearGradient id="SVGID_00000082350039146328610330000017407163072451713165_" gradientUnits="userSpaceOnUse" x1="377.1453" y1="-431.0072" x2="422.005" y2="-175.1408" gradientTransform="matrix(-0.9948 -0.1017 -0.1017 0.9948 1079.2147 1862.0973)">
					<stop  offset="0" style="stop-color:#E1473D"/>
					<stop  offset="1" style="stop-color:#E9605A"/>
				</linearGradient>
				<path style="fill:url(#SVGID_00000082350039146328610330000017407163072451713165_);" d="M741.575,1615.624
					c-2.438,0.519-4.755-1.246-4.872-3.736c-0.357-7.572-1.644-22.615-6.278-33.246c0,0,4.045-10.297-27.338,2.673
					c-31.382,12.969-78.465,31.92-103.336,15.226c-24.25-16.276-43.202-87.65,23.274-67.99c2.529,0.749,5.11-1.064,5.184-3.7
					c0.322-11.379,4.1-37.248,31.264-42.898c25.421-5.286,37.764,7.207,42.633,14.485c1.432,2.139,4.47,2.41,6.236,0.536
					c8.36-8.874,30.487-27.323,58.647-11.313c23.195,13.187,25.442,28.535,24.088,37.816c-0.439,3.008,2.417,5.368,5.292,4.383
					c7.789-2.665,19.936-3.222,29.93,12.311c13.815,21.473-10.588,36.375-17.842,40.193c-1.189,0.627-2.006,1.781-2.152,3.116
					c-1.118,10.319-7.331,55.192-32.502,78.289c-2.179,1.999-5.726,0.985-6.586-1.844l-13.146-43.188
					c-0.611-2.005-2.655-3.211-4.706-2.774L741.575,1615.624z"/>
				
					<linearGradient id="SVGID_00000137097292197921399980000016868091573191014792_" gradientUnits="userSpaceOnUse" x1="-87.0425" y1="5085.8286" x2="-48.3484" y2="4611.4009" gradientTransform="matrix(-0.9948 -0.1017 -0.1017 0.9948 1079.2147 1862.0973)">
					<stop  offset="0" style="stop-color:#FF928E"/>
					<stop  offset="1" style="stop-color:#FEB3B1"/>
				</linearGradient>
				<path style="fill:url(#SVGID_00000137097292197921399980000016868091573191014792_);" d="M740.348,1623.994
					c0,0,15.032-42.142,29.719-26.459c14.687,15.683-8.796,44.495-27.867,48.494L740.348,1623.994z"/>
			</g>
			
				<linearGradient id="SVGID_00000112628958984509154530000012774704673200577959_" gradientUnits="userSpaceOnUse" x1="1512.1252" y1="48.9029" x2="1436.4222" y2="321.4339">
				<stop  offset="0" style="stop-color:#FF928E"/>
				<stop  offset="1" style="stop-color:#FE7062"/>
			</linearGradient>
			<path style="fill:url(#SVGID_00000112628958984509154530000012774704673200577959_);" d="M876.997,1907.701L933.88,1764.1
				c0,0,138.524,94.12,161.304,213.455c-26.174,1.928-73.802,8.735-120.421,32.275
				C964.519,1953.482,876.997,1907.701,876.997,1907.701z"/>
		</g>
		<g>
			<g>
				<path style="fill:#7D97F4;" d="M2122.929,2749.38c24.597-92.372,77.039-167.611,141.186-213.488
					c57.344-41.011,97.163-102.436,109.723-171.738c1.32-7.284,2.953-14.605,4.905-21.939
					c29.583-111.094,121.633-183.027,205.601-160.668c83.968,22.359,128.055,130.544,98.473,241.638
					c-6.049,22.717-14.712,43.79-25.384,62.753c-34.058,60.519-45.163,131.635-28.426,199.062
					c14.957,60.257,14.884,128.939-3.557,198.193c-27.504,103.288-89.822,185.159-164.39,228.509
					c-28.206,16.397-53.328,37.813-73.773,63.203c-33.976,42.192-83.636,63.689-130.777,51.136
					c-50.855-13.543-84.544-62.92-89.582-122.223c-2.851-33.559-12.272-66.125-26.571-96.646
					C2106.6,2935.121,2098.059,2842.773,2122.929,2749.38z"/>
				<path style="opacity:0.57;fill:#FFFFFF;" d="M2523.47,2291.901c-30.52,70.5-58.751,141.925-86.235,213.644
					c-6.878,17.926-13.468,35.961-20.116,53.975l-9.968,27.021l-9.741,27.105c-6.425,18.096-13.099,36.102-19.318,54.271
					l-18.663,54.503c-11.977,36.494-24.264,72.885-35.562,109.601c-5.674,18.349-11.707,36.584-17.008,55.049l-16.159,55.309
					c-20.799,73.958-39.75,148.475-54.893,223.804l3.24,0.685l13.476-55.93l3.337-13.985l3.687-13.901l7.425-27.787l7.372-27.795
					c2.44-9.269,5.226-18.448,7.821-27.676c5.314-18.422,10.483-36.884,15.916-55.27c22.212-73.408,45.398-146.522,70.09-219.149
					c12.624-36.219,24.936-72.542,37.812-108.675l9.582-27.125l9.81-27.046c6.529-18.034,13.059-36.068,19.77-54.036
					c13.116-36.05,26.49-72.01,40.158-107.858c13.48-35.919,27.301-71.722,41.228-107.464L2523.47,2291.901z"/>
			</g>
			<g>
				<path style="fill:#91B3FA;" d="M2389.921,2882.707c46.648-51.413,105.516-82.528,162.127-90.82
					c50.608-7.413,96.738-33.81,127.94-74.339c3.28-4.259,6.773-8.439,10.476-12.521c56.104-61.832,139.376-77.666,185.995-35.365
					c46.619,42.3,38.931,126.716-17.172,188.547c-11.472,12.643-24.079,23.36-37.276,32.047
					c-42.119,27.726-72.989,69.908-84.699,118.954c-10.463,43.831-33.416,88.105-68.391,126.651
					c-52.161,57.487-119.6,89.602-182.082,92.803c-23.633,1.211-46.955,6.683-68.59,16.271
					c-35.953,15.932-75.105,13.309-101.278-10.439c-28.234-25.619-33.463-68.652-16.928-108.574
					c9.357-22.591,14.15-46.723,15.121-71.156C2317.458,2997.085,2342.756,2934.686,2389.921,2882.707z"/>
				<path style="opacity:0.57;fill:#FFFFFF;" d="M2800.453,2720.627c-43.169,35.338-85.171,72.033-126.791,109.165
					c-10.409,9.279-20.668,18.723-30.957,28.134l-15.432,14.12l-15.314,14.248c-10.172,9.539-20.476,18.936-30.541,28.59
					l-30.197,28.958c-19.886,19.561-39.935,38.952-59.457,58.884c-9.774,9.95-19.741,19.708-29.314,29.858l-28.853,30.308
					c-38.061,40.796-75.118,82.567-109.994,126.125l1.858,1.518l27.331-31.599l6.814-7.912l7.011-7.742l14.049-15.456l14.018-15.48
					c4.663-5.168,9.518-10.164,14.267-15.254c9.568-10.117,19.053-20.309,28.684-30.364
					c38.788-39.973,78.105-79.432,118.229-118.076c20.209-19.169,40.252-38.51,60.596-57.54l15.218-14.314l15.338-14.187
					c10.219-9.464,20.439-18.928,30.754-28.288c20.47-18.897,41.077-37.65,61.835-56.234c20.661-18.692,41.503-37.195,62.393-55.624
					L2800.453,2720.627z"/>
			</g>
		</g>
		<g>
			
				<linearGradient id="SVGID_00000090276691888247802270000006071090233661581450_" gradientUnits="userSpaceOnUse" x1="3283.8669" y1="1435.8785" x2="3408.51" y2="1746.2147" gradientTransform="matrix(1 0 0 1 -527.816 0)">
				<stop  offset="0" style="stop-color:#09005D"/>
				<stop  offset="1" style="stop-color:#1A0F91"/>
			</linearGradient>
			<path style="fill:url(#SVGID_00000090276691888247802270000006071090233661581450_);" d="M3216.614,2160.014
				c-19.041-31.723-23.975-60.178-18.346-96.968c9.291-60.73,2.052-128.364-36.647-178.34
				c-36.711-47.411-102.791-51.644-143.114-93.945c-0.279-0.293-1.21-1.672-2.56-3.799c-10.189-16.049-15.778-34.304-16.407-53.305
				c-3.939-119.03-90.524-117.641-131.605-95.058c-65.041,35.755-50.762,102.477-50.762,102.477
				c18.147,19.404,82.962-21.953,82.962-21.953l26.94,43.249c-7.637,3.32-15.841,7.073-24.769,11.45
				c-61.043,29.93-67.579,263.766-33.201,301.167c34.377,37.401,40.425,73.102,5.747,134.3
				c-34.678,61.198-14.624,141.108,169.887,207.41c29.884,10.738,74.876,11.895,104.395-0.08
				c64.746-26.264,100.359-103.262,102.111-169.606C3252.132,2213.342,3233.113,2187.504,3216.614,2160.014z"/>
			
				<linearGradient id="SVGID_00000002377416214402135840000009083853805070855064_" gradientUnits="userSpaceOnUse" x1="2998.3645" y1="1941.6282" x2="3170.9751" y2="1941.6282">
				<stop  offset="0" style="stop-color:#DAE3FE"/>
				<stop  offset="1" style="stop-color:#E9EFFD"/>
			</linearGradient>
			<path style="fill:url(#SVGID_00000002377416214402135840000009083853805070855064_);" d="M3168.787,2083.609
				c-0.023,0-0.049,0-0.049,0c-0.49-0.046-0.832-0.453-0.789-0.917c7.544-84.072-18.138-139.39-41.014-170.994
				c-24.976-34.505-57.592-55.666-77.33-60.726c-34.833-8.928-51.023-49.768-51.184-50.179c-0.167-0.434,0.049-0.923,0.48-1.091
				c0.44-0.164,0.917,0.049,1.091,0.48c0.154,0.404,16.042,40.449,50.034,49.16c15.437,3.956,49.298,21.335,78.273,61.37
				c23.044,31.834,48.917,87.542,41.327,172.131C3169.586,2083.28,3169.218,2083.609,3168.787,2083.609z"/>
			
				<linearGradient id="SVGID_00000088119636524095541430000008702378256351213466_" gradientUnits="userSpaceOnUse" x1="3137.8269" y1="2324.6985" x2="3211.7205" y2="2324.6985">
				<stop  offset="0" style="stop-color:#DAE3FE"/>
				<stop  offset="1" style="stop-color:#E9EFFD"/>
			</linearGradient>
			<path style="fill:url(#SVGID_00000088119636524095541430000008702378256351213466_);" d="M3138.669,2380.593
				c-0.335,0-0.654-0.204-0.785-0.536c-0.167-0.434,0.049-0.92,0.48-1.091c0.729-0.283,72.91-29.254,71.658-109.308
				c-0.007-0.463,0.365-0.848,0.828-0.854h0.013c0.46,0,0.835,0.368,0.841,0.828c1.268,81.247-71.99,110.616-72.729,110.905
				C3138.873,2380.573,3138.771,2380.593,3138.669,2380.593z"/>
			
				<linearGradient id="SVGID_00000169524298206331724450000004187448990784389763_" gradientUnits="userSpaceOnUse" x1="-198.191" y1="1982.2078" x2="-269.2942" y2="2245.2898" gradientTransform="matrix(-1 0 0 1 2536.614 0)">
				<stop  offset="0" style="stop-color:#A22B25"/>
				<stop  offset="1" style="stop-color:#C0423C"/>
			</linearGradient>
			<path style="fill:url(#SVGID_00000169524298206331724450000004187448990784389763_);" d="M2691.039,2082.384
				c0,0,79.896,95.684,160.35,17.979l31.084,72.085c0,0-117.487,90.972-206.603-52.162L2691.039,2082.384z"/>
			
				<linearGradient id="SVGID_00000040547621596698444950000011521690303477556138_" gradientUnits="userSpaceOnUse" x1="3228.8523" y1="1878.0359" x2="4041.3962" y2="1211.8506">
				<stop  offset="0" style="stop-color:#FF928E"/>
				<stop  offset="1" style="stop-color:#FE7062"/>
			</linearGradient>
			<path style="fill:url(#SVGID_00000040547621596698444950000011521690303477556138_);" d="M2888.371,1904.752
				c22.178-6.649,86.754-18.925,148.177,37.759c10.417,9.614,14.675,24.221,10.96,37.901
				c-16.498,60.738-60.026,240.183-21.86,317.826c0,0-67.259,74.143-140.635,14.385c0,0-32.922-143.486-76.043-206.477
				c-29.771-43.487,47.472-163.303,67.014-192.25C2878.944,1909.514,2883.305,1906.271,2888.371,1904.752z"/>
			
				<linearGradient id="SVGID_00000019638842739911589290000000699889278535466634_" gradientUnits="userSpaceOnUse" x1="-4674.4473" y1="2870.5784" x2="-4656.6968" y2="2744.5483" gradientTransform="matrix(0.9887 0.1503 -0.1503 0.9887 7947.7837 -161.5951)">
				<stop  offset="0" style="stop-color:#A22B25"/>
				<stop  offset="1" style="stop-color:#C0423C"/>
			</linearGradient>
			<path style="fill:url(#SVGID_00000019638842739911589290000000699889278535466634_);" d="M2922.726,1788.969
				c0,0,44.754,87.639,52.601,127.886c0,0-33.76,21.123-71.291-1.949c0,0-15.779-91.386-23.103-107.152L2922.726,1788.969z"/>
			
				<linearGradient id="SVGID_00000110461705554134393620000015433563334855168191_" gradientUnits="userSpaceOnUse" x1="3787.1492" y1="3388.1252" x2="4183.1416" y2="2689.1138" gradientTransform="matrix(-1 -0.0095 -0.0095 1 7010.0161 56.9446)">
				<stop  offset="0" style="stop-color:#A22B25"/>
				<stop  offset="1" style="stop-color:#C0423C"/>
			</linearGradient>
			<path style="fill:url(#SVGID_00000110461705554134393620000015433563334855168191_);" d="M2799.355,2613.886
				c0.251,6.513-11.185,58.182-17.409,85.742c-2.506,11.089-0.761,22.694,4.885,32.561l215.557,362.793
				c2.608,4.388,4.506,9.142,5.659,14.114c3.95,17.025,12.144,58.749,7.865,96.708l-11.15,23.16l48.227-10.95l10.492-129.512
				l-13.653-8.325c-11.795-7.191-20.979-17.943-26.237-30.717c-19.491-47.345-67.893-167.865-80.371-226.6
				c-14.18-66.752-88.306-120.97-88.306-120.97l13.023-30.788L2799.355,2613.886z"/>
			
				<linearGradient id="SVGID_00000180358779161677090200000001364773673350462849_" gradientUnits="userSpaceOnUse" x1="3873.4727" y1="3140.9849" x2="3989.2227" y2="3140.9849" gradientTransform="matrix(-1 -0.0095 -0.0095 1 7010.0161 56.9446)">
				<stop  offset="0" style="stop-color:#09005D"/>
				<stop  offset="1" style="stop-color:#1A0F91"/>
			</linearGradient>
			<path style="fill:url(#SVGID_00000180358779161677090200000001364773673350462849_);" d="M3106.587,3173.447
				c0,0-26.043-41.289-29.108-57.362c-3.064-16.072-11.594-44.454-27.65-35.91c0,0-7.566,78.074-4.958,108.582
				c2.608,30.507-34.487,29.525-34.487,29.525s-10.224,1.437-17.711,8.922c-5.171,5.169-1.472,14.137,5.822,14.607
				c12.14,0.783,31.421,0.987,51.667-2.925c7.076-1.367,12.321-7.388,12.75-14.582l5.344-89.857l32.851,41.481L3106.587,3173.447z"
				/>
			
				<linearGradient id="SVGID_00000000213277864357104150000006243243639579203242_" gradientUnits="userSpaceOnUse" x1="4235.9063" y1="2871.0139" x2="3643.6829" y2="3060.3879" gradientTransform="matrix(-1 -0.0095 -0.0095 1 7010.0161 56.9446)">
				<stop  offset="0" style="stop-color:#A22B25"/>
				<stop  offset="1" style="stop-color:#C0423C"/>
			</linearGradient>
			<path style="fill:url(#SVGID_00000000213277864357104150000006243243639579203242_);" d="M2928.125,2671.675
				c0,0,7.602,324.516,8.632,370.605c1.029,46.09-7.277,148.229-53.482,178.758l20.105,14.885c0,0,25.125-21.354,49.672-62.453
				c27.575-46.17,35.913-54.605,35.913-54.605l-9.15-18.739c-4.007-8.204-5.184-17.484-3.339-26.426
				c9.971-48.324,43.279-209.058,52.366-243.672c10.726-40.86,11.488-95.425-25.826-141.1
				C2965.704,2643.254,2928.125,2671.675,2928.125,2671.675z"/>
			
				<linearGradient id="SVGID_00000067934226727543211430000006483255518749764494_" gradientUnits="userSpaceOnUse" x1="3980.7876" y1="3161.8899" x2="4118.7725" y2="3161.8899" gradientTransform="matrix(-1 -0.0095 -0.0095 1 7010.0161 56.9446)">
				<stop  offset="0" style="stop-color:#09005D"/>
				<stop  offset="1" style="stop-color:#1A0F91"/>
			</linearGradient>
			<path style="fill:url(#SVGID_00000067934226727543211430000006483255518749764494_);" d="M2970.791,3250.549
				c1.433,0.013,2.651-1.013,2.854-2.432c1.538-10.818,7.938-54.192,13.176-65.424c6.001-12.862,25.599-66.999-0.011-71.595
				c0,0-63.667,93.018-75.888,105.559c-12.222,12.542-27.647,4.382-27.647,4.382s-11.907,3.518-20.887,14.994
				c-4.274,5.462-0.292,13.48,6.643,13.545l42.884,0.41c12.454,0.118,23.656-7.447,28.285-19.009
				c7.549-18.854,20.515-46.51,35.628-58.779l-7.852,75.194C2967.801,3249.07,2969.105,3250.534,2970.791,3250.549
				L2970.791,3250.549z"/>
			
				<linearGradient id="SVGID_00000177478157636051980040000009648485253794565792_" gradientUnits="userSpaceOnUse" x1="4171.9238" y1="2235.1121" x2="3841.3555" y2="2972.0046" gradientTransform="matrix(-1 -0.0095 -0.0095 1 7010.0161 56.9446)">
				<stop  offset="0" style="stop-color:#4F52FF"/>
				<stop  offset="1" style="stop-color:#4042E2"/>
			</linearGradient>
			<path style="fill:url(#SVGID_00000177478157636051980040000009648485253794565792_);" d="M2874.863,2277.634
				c0,0,9.663,30.802-5.183,81.534l-92.096,321.604c-1.447,5.054,1.28,10.343,6.228,12.118
				c27.547,9.887,118.105,37.832,241.725,29.31c6.223-0.429,11.442-4.836,12.796-10.927c8.145-36.664,35.937-161.757,41.659-187.46
				c21.804-97.938,42.919-191.079-64.182-254.944C2966.452,2290.01,2923.647,2289.993,2874.863,2277.634z"/>
			
				<linearGradient id="SVGID_00000127734763563640140710000016908880024902392737_" gradientUnits="userSpaceOnUse" x1="-334.8645" y1="2083.9497" x2="-30.374" y2="2083.9497" gradientTransform="matrix(-1 0 0 1 2536.614 0)">
				<stop  offset="0" style="stop-color:#A22B25"/>
				<stop  offset="1" style="stop-color:#C0423C"/>
			</linearGradient>
			<path style="fill:url(#SVGID_00000127734763563640140710000016908880024902392737_);" d="M2985.956,1986.426
				c0,0,18.539,264.925-152.628,131.86c0,0-25.279-23.88-43.529-26.784c-9.831-1.564-20.921-2.609-29.062-3.24
				c-3.715-0.288-5.452,4.51-2.403,6.652c5.879,4.131,13.584,8.578,20.266,9.271c12.913,1.339-0.854,10.802,13.208,35.527
				c14.061,24.726,34.148,15.401,34.148,15.401s196.125,200.845,235.282-149.441
				C3062.62,1940.509,2999.918,1943.975,2985.956,1986.426z"/>
			<g>
				
					<linearGradient id="SVGID_00000147199289385134178190000006105218960925554872_" gradientUnits="userSpaceOnUse" x1="-5856.564" y1="1752.8502" x2="-5908.0718" y2="1807.291" gradientTransform="matrix(0.9865 -0.1635 0.2088 1.2596 8130.5083 -1140.5688)">
					<stop  offset="0" style="stop-color:#09005D"/>
					<stop  offset="1" style="stop-color:#1A0F91"/>
				</linearGradient>
				<path style="fill:url(#SVGID_00000147199289385134178190000006105218960925554872_);" d="M2638.513,2016.53l58.23-7.673
					c6.943-1.151,14.11,2.917,18.399,10.443l38.305,84.668c7.211,12.651,2.082,29.433-9.587,31.368l-46.759,5.997
					c-4.474,0.742-9.073-2.082-11.597-7.122l-51.805-103.401C2630.706,2024.837,2633.209,2017.409,2638.513,2016.53z"/>
			</g>
			
				<linearGradient id="SVGID_00000120533132373037231940000004205065342708358329_" gradientUnits="userSpaceOnUse" x1="-119.624" y1="2010.0226" x2="-157.0965" y2="2148.6707" gradientTransform="matrix(-1 0 0 1 2536.614 0)">
				<stop  offset="0" style="stop-color:#A22B25"/>
				<stop  offset="1" style="stop-color:#C0423C"/>
			</linearGradient>
			<path style="fill:url(#SVGID_00000120533132373037231940000004205065342708358329_);" d="M2678.241,2130.733
				c0,0-39.152-56.977-34.604-63.992c4.548-7.015,38.869-17.065,46.928-19.435
				C2698.624,2044.936,2713.792,2096.604,2678.241,2130.733z"/>
			
				<linearGradient id="SVGID_00000093865250809180540450000011978002274324148411_" gradientUnits="userSpaceOnUse" x1="-5593.3682" y1="3543.6313" x2="-5427.3945" y2="3734.4565" gradientTransform="matrix(0.9609 -0.2771 0.2771 0.9609 7220.168 -3190.0432)">
				<stop  offset="0" style="stop-color:#A22B25"/>
				<stop  offset="1" style="stop-color:#C0423C"/>
			</linearGradient>
			<path style="fill:url(#SVGID_00000093865250809180540450000011978002274324148411_);" d="M2822.402,1739.569
				c0,0-8.34,147.326,53.643,149.39c61.983,2.065,67.997-102.689,67.997-102.689s-18.297-66.18-47.805-73.895
				C2866.729,1704.659,2822.402,1739.569,2822.402,1739.569z"/>
			
				<linearGradient id="SVGID_00000063633210273276783710000012313027461323361953_" gradientUnits="userSpaceOnUse" x1="3285.1606" y1="1432.5243" x2="3410.114" y2="1743.6333" gradientTransform="matrix(1 0 0 1 -527.816 0)">
				<stop  offset="0" style="stop-color:#09005D"/>
				<stop  offset="1" style="stop-color:#1A0F91"/>
			</linearGradient>
			<path style="fill:url(#SVGID_00000063633210273276783710000012313027461323361953_);" d="M2840.629,1694.096
				c0,0-28.319,28.957-23.457,46.981c4.864,18.024,65.607-0.824,80.583-9.338l50.179,53.408c0,0-1.538-79.12-36.156-103.484
				C2877.16,1657.297,2840.629,1694.096,2840.629,1694.096z"/>
			
				<linearGradient id="SVGID_00000009574778443389903900000002584628339855080068_" gradientUnits="userSpaceOnUse" x1="-5551.8999" y1="3507.5632" x2="-5385.9282" y2="3698.3862" gradientTransform="matrix(0.9609 -0.2771 0.2771 0.9609 7220.168 -3190.0432)">
				<stop  offset="0" style="stop-color:#A22B25"/>
				<stop  offset="1" style="stop-color:#C0423C"/>
			</linearGradient>
			<path style="fill:url(#SVGID_00000009574778443389903900000002584628339855080068_);" d="M2925.264,1787.692
				c0,0,7.553-50.533,32.254-36.323c24.701,14.209-1.812,53.371-21.108,50.927L2925.264,1787.692z"/>
		</g>
	</g>
</g>
</svg>
